<mxfile host="app.diagrams.net" modified="2023-01-13T17:20:02.153Z" agent="5.0 (X11; Linux x86_64) AppleWebKit/537.36 (KHTML, like Gecko) Chrome/108.0.0.0 Safari/537.36" version="20.8.5" etag="m_X46l__bHwxtFxlA1-t" type="github">
  <diagram id="aib1PSoFXxBQyVo25-rL" name="Page-1">
    <mxGraphModel dx="2793" dy="1107" grid="1" gridSize="10" guides="1" tooltips="1" connect="1" arrows="1" fold="1" page="1" pageScale="1" pageWidth="850" pageHeight="1100" math="0" shadow="0">
      <root>
        <mxCell id="0" />
        <mxCell id="1" parent="0" />
        <mxCell id="JCA2NXcP29K0GtfBwjYJ-50" style="edgeStyle=none;rounded=0;orthogonalLoop=1;jettySize=auto;html=1;exitX=0;exitY=0.25;exitDx=0;exitDy=0;entryX=1;entryY=0.5;entryDx=0;entryDy=0;endArrow=none;endFill=0;elbow=vertical;" edge="1" parent="1" source="JCA2NXcP29K0GtfBwjYJ-1" target="JCA2NXcP29K0GtfBwjYJ-49">
          <mxGeometry relative="1" as="geometry" />
        </mxCell>
        <mxCell id="JCA2NXcP29K0GtfBwjYJ-52" value="0,n" style="edgeLabel;html=1;align=center;verticalAlign=middle;resizable=0;points=[];" vertex="1" connectable="0" parent="JCA2NXcP29K0GtfBwjYJ-50">
          <mxGeometry x="0.3016" y="-1" relative="1" as="geometry">
            <mxPoint x="18" y="4" as="offset" />
          </mxGeometry>
        </mxCell>
        <mxCell id="JCA2NXcP29K0GtfBwjYJ-55" style="edgeStyle=none;rounded=0;orthogonalLoop=1;jettySize=auto;html=1;exitX=0.25;exitY=0;exitDx=0;exitDy=0;entryX=0.5;entryY=1;entryDx=0;entryDy=0;endArrow=none;endFill=0;elbow=vertical;" edge="1" parent="1" source="JCA2NXcP29K0GtfBwjYJ-1" target="JCA2NXcP29K0GtfBwjYJ-54">
          <mxGeometry relative="1" as="geometry" />
        </mxCell>
        <mxCell id="JCA2NXcP29K0GtfBwjYJ-57" value="0,n" style="edgeLabel;html=1;align=center;verticalAlign=middle;resizable=0;points=[];" vertex="1" connectable="0" parent="JCA2NXcP29K0GtfBwjYJ-55">
          <mxGeometry x="0.2605" relative="1" as="geometry">
            <mxPoint as="offset" />
          </mxGeometry>
        </mxCell>
        <mxCell id="JCA2NXcP29K0GtfBwjYJ-67" style="edgeStyle=none;rounded=0;orthogonalLoop=1;jettySize=auto;html=1;exitX=0.75;exitY=0;exitDx=0;exitDy=0;entryX=0.5;entryY=1;entryDx=0;entryDy=0;endArrow=none;endFill=0;elbow=vertical;" edge="1" parent="1" source="JCA2NXcP29K0GtfBwjYJ-1" target="JCA2NXcP29K0GtfBwjYJ-65">
          <mxGeometry relative="1" as="geometry" />
        </mxCell>
        <mxCell id="JCA2NXcP29K0GtfBwjYJ-68" value="1,1" style="edgeLabel;html=1;align=center;verticalAlign=middle;resizable=0;points=[];" vertex="1" connectable="0" parent="JCA2NXcP29K0GtfBwjYJ-67">
          <mxGeometry x="0.3318" y="2" relative="1" as="geometry">
            <mxPoint as="offset" />
          </mxGeometry>
        </mxCell>
        <mxCell id="JCA2NXcP29K0GtfBwjYJ-1" value="Article" style="swimlane;whiteSpace=wrap;html=1;fillColor=#fff2cc;strokeColor=#d6b656;" vertex="1" parent="1">
          <mxGeometry x="360" y="410" width="200" height="240" as="geometry" />
        </mxCell>
        <mxCell id="JCA2NXcP29K0GtfBwjYJ-3" value="title" style="text;html=1;align=left;verticalAlign=middle;resizable=0;points=[];autosize=1;strokeColor=none;fillColor=none;" vertex="1" parent="JCA2NXcP29K0GtfBwjYJ-1">
          <mxGeometry x="5" y="50" width="40" height="30" as="geometry" />
        </mxCell>
        <mxCell id="JCA2NXcP29K0GtfBwjYJ-4" value="price" style="text;html=1;align=left;verticalAlign=middle;resizable=0;points=[];autosize=1;strokeColor=none;fillColor=none;" vertex="1" parent="JCA2NXcP29K0GtfBwjYJ-1">
          <mxGeometry x="5" y="70" width="50" height="30" as="geometry" />
        </mxCell>
        <mxCell id="JCA2NXcP29K0GtfBwjYJ-5" value="description" style="text;html=1;align=left;verticalAlign=middle;resizable=0;points=[];autosize=1;strokeColor=none;fillColor=none;" vertex="1" parent="JCA2NXcP29K0GtfBwjYJ-1">
          <mxGeometry x="5" y="90" width="80" height="30" as="geometry" />
        </mxCell>
        <mxCell id="JCA2NXcP29K0GtfBwjYJ-2" value="Id" style="text;html=1;align=left;verticalAlign=middle;resizable=0;points=[];autosize=1;strokeColor=none;fillColor=none;" vertex="1" parent="JCA2NXcP29K0GtfBwjYJ-1">
          <mxGeometry x="5" y="30" width="30" height="30" as="geometry" />
        </mxCell>
        <mxCell id="JCA2NXcP29K0GtfBwjYJ-16" value="createdAt" style="text;html=1;align=left;verticalAlign=middle;resizable=0;points=[];autosize=1;strokeColor=none;fillColor=none;" vertex="1" parent="JCA2NXcP29K0GtfBwjYJ-1">
          <mxGeometry x="5" y="110" width="70" height="30" as="geometry" />
        </mxCell>
        <mxCell id="JCA2NXcP29K0GtfBwjYJ-17" value="updatedAt" style="text;html=1;align=left;verticalAlign=middle;resizable=0;points=[];autosize=1;strokeColor=none;fillColor=none;" vertex="1" parent="JCA2NXcP29K0GtfBwjYJ-1">
          <mxGeometry x="5" y="130" width="80" height="30" as="geometry" />
        </mxCell>
        <mxCell id="JCA2NXcP29K0GtfBwjYJ-18" value="deletedAt" style="text;html=1;align=left;verticalAlign=middle;resizable=0;points=[];autosize=1;strokeColor=none;fillColor=none;" vertex="1" parent="JCA2NXcP29K0GtfBwjYJ-1">
          <mxGeometry x="5" y="150" width="70" height="30" as="geometry" />
        </mxCell>
        <mxCell id="JCA2NXcP29K0GtfBwjYJ-24" value="discountRate" style="text;html=1;align=left;verticalAlign=middle;resizable=0;points=[];autosize=1;strokeColor=none;fillColor=none;" vertex="1" parent="JCA2NXcP29K0GtfBwjYJ-1">
          <mxGeometry x="5" y="170" width="90" height="30" as="geometry" />
        </mxCell>
        <mxCell id="JCA2NXcP29K0GtfBwjYJ-26" value="discountEnableAt" style="text;html=1;align=left;verticalAlign=middle;resizable=0;points=[];autosize=1;strokeColor=none;fillColor=none;" vertex="1" parent="JCA2NXcP29K0GtfBwjYJ-1">
          <mxGeometry x="5" y="190" width="120" height="30" as="geometry" />
        </mxCell>
        <mxCell id="JCA2NXcP29K0GtfBwjYJ-27" value="discountExpireAt" style="text;html=1;align=left;verticalAlign=middle;resizable=0;points=[];autosize=1;strokeColor=none;fillColor=none;" vertex="1" parent="JCA2NXcP29K0GtfBwjYJ-1">
          <mxGeometry x="5" y="210" width="110" height="30" as="geometry" />
        </mxCell>
        <mxCell id="JCA2NXcP29K0GtfBwjYJ-8" value="Categorie" style="swimlane;whiteSpace=wrap;html=1;fillColor=#fff2cc;strokeColor=#d6b656;" vertex="1" parent="1">
          <mxGeometry x="600" y="10" width="200" height="150" as="geometry" />
        </mxCell>
        <mxCell id="JCA2NXcP29K0GtfBwjYJ-29" value="Id" style="text;html=1;align=left;verticalAlign=middle;resizable=0;points=[];autosize=1;strokeColor=none;fillColor=none;" vertex="1" parent="JCA2NXcP29K0GtfBwjYJ-8">
          <mxGeometry x="10" y="30" width="30" height="30" as="geometry" />
        </mxCell>
        <mxCell id="JCA2NXcP29K0GtfBwjYJ-30" value="title" style="text;html=1;align=left;verticalAlign=middle;resizable=0;points=[];autosize=1;strokeColor=none;fillColor=none;" vertex="1" parent="JCA2NXcP29K0GtfBwjYJ-8">
          <mxGeometry x="10" y="50" width="40" height="30" as="geometry" />
        </mxCell>
        <mxCell id="JCA2NXcP29K0GtfBwjYJ-70" value="createdAt" style="text;html=1;align=left;verticalAlign=middle;resizable=0;points=[];autosize=1;strokeColor=none;fillColor=none;" vertex="1" parent="JCA2NXcP29K0GtfBwjYJ-8">
          <mxGeometry x="10" y="70" width="70" height="30" as="geometry" />
        </mxCell>
        <mxCell id="JCA2NXcP29K0GtfBwjYJ-71" value="updatedAt" style="text;html=1;align=left;verticalAlign=middle;resizable=0;points=[];autosize=1;strokeColor=none;fillColor=none;" vertex="1" parent="JCA2NXcP29K0GtfBwjYJ-8">
          <mxGeometry x="10" y="90" width="80" height="30" as="geometry" />
        </mxCell>
        <mxCell id="JCA2NXcP29K0GtfBwjYJ-72" value="deletedAt" style="text;html=1;align=left;verticalAlign=middle;resizable=0;points=[];autosize=1;strokeColor=none;fillColor=none;" vertex="1" parent="JCA2NXcP29K0GtfBwjYJ-8">
          <mxGeometry x="10" y="110" width="70" height="30" as="geometry" />
        </mxCell>
        <mxCell id="JCA2NXcP29K0GtfBwjYJ-15" value="Tag" style="swimlane;whiteSpace=wrap;html=1;fillColor=#fff2cc;strokeColor=#d6b656;" vertex="1" parent="1">
          <mxGeometry x="-160" y="400" width="200" height="140" as="geometry" />
        </mxCell>
        <mxCell id="JCA2NXcP29K0GtfBwjYJ-28" value="Id" style="text;html=1;align=left;verticalAlign=middle;resizable=0;points=[];autosize=1;strokeColor=none;fillColor=none;" vertex="1" parent="JCA2NXcP29K0GtfBwjYJ-15">
          <mxGeometry x="5" y="30" width="30" height="30" as="geometry" />
        </mxCell>
        <mxCell id="JCA2NXcP29K0GtfBwjYJ-31" value="title" style="text;html=1;align=left;verticalAlign=middle;resizable=0;points=[];autosize=1;strokeColor=none;fillColor=none;" vertex="1" parent="JCA2NXcP29K0GtfBwjYJ-15">
          <mxGeometry x="5" y="50" width="40" height="30" as="geometry" />
        </mxCell>
        <mxCell id="JCA2NXcP29K0GtfBwjYJ-62" value="createdAt" style="text;html=1;align=left;verticalAlign=middle;resizable=0;points=[];autosize=1;strokeColor=none;fillColor=none;" vertex="1" parent="JCA2NXcP29K0GtfBwjYJ-15">
          <mxGeometry x="5" y="70" width="70" height="30" as="geometry" />
        </mxCell>
        <mxCell id="JCA2NXcP29K0GtfBwjYJ-63" value="updatedAt" style="text;html=1;align=left;verticalAlign=middle;resizable=0;points=[];autosize=1;strokeColor=none;fillColor=none;" vertex="1" parent="JCA2NXcP29K0GtfBwjYJ-15">
          <mxGeometry x="5" y="90" width="80" height="30" as="geometry" />
        </mxCell>
        <mxCell id="JCA2NXcP29K0GtfBwjYJ-64" value="deletedAt" style="text;html=1;align=left;verticalAlign=middle;resizable=0;points=[];autosize=1;strokeColor=none;fillColor=none;" vertex="1" parent="JCA2NXcP29K0GtfBwjYJ-15">
          <mxGeometry x="5" y="110" width="70" height="30" as="geometry" />
        </mxCell>
        <mxCell id="JCA2NXcP29K0GtfBwjYJ-56" style="edgeStyle=none;rounded=0;orthogonalLoop=1;jettySize=auto;html=1;exitX=0.5;exitY=1;exitDx=0;exitDy=0;entryX=0.5;entryY=0;entryDx=0;entryDy=0;endArrow=none;endFill=0;elbow=vertical;" edge="1" parent="1" source="JCA2NXcP29K0GtfBwjYJ-19" target="JCA2NXcP29K0GtfBwjYJ-54">
          <mxGeometry relative="1" as="geometry" />
        </mxCell>
        <mxCell id="JCA2NXcP29K0GtfBwjYJ-58" value="1,1" style="edgeLabel;html=1;align=center;verticalAlign=middle;resizable=0;points=[];" vertex="1" connectable="0" parent="JCA2NXcP29K0GtfBwjYJ-56">
          <mxGeometry x="0.2009" relative="1" as="geometry">
            <mxPoint as="offset" />
          </mxGeometry>
        </mxCell>
        <mxCell id="JCA2NXcP29K0GtfBwjYJ-19" value="Photo" style="swimlane;whiteSpace=wrap;html=1;fillColor=#fff2cc;strokeColor=#d6b656;" vertex="1" parent="1">
          <mxGeometry x="160" y="10" width="200" height="150" as="geometry" />
        </mxCell>
        <mxCell id="JCA2NXcP29K0GtfBwjYJ-20" value="Id" style="text;html=1;align=left;verticalAlign=middle;resizable=0;points=[];autosize=1;strokeColor=none;fillColor=none;" vertex="1" parent="JCA2NXcP29K0GtfBwjYJ-19">
          <mxGeometry x="5" y="30" width="30" height="30" as="geometry" />
        </mxCell>
        <mxCell id="JCA2NXcP29K0GtfBwjYJ-21" value="src" style="text;html=1;align=left;verticalAlign=middle;resizable=0;points=[];autosize=1;strokeColor=none;fillColor=none;" vertex="1" parent="JCA2NXcP29K0GtfBwjYJ-19">
          <mxGeometry x="5" y="50" width="40" height="30" as="geometry" />
        </mxCell>
        <mxCell id="JCA2NXcP29K0GtfBwjYJ-59" value="createdAt" style="text;html=1;align=left;verticalAlign=middle;resizable=0;points=[];autosize=1;strokeColor=none;fillColor=none;" vertex="1" parent="JCA2NXcP29K0GtfBwjYJ-19">
          <mxGeometry x="5" y="70" width="70" height="30" as="geometry" />
        </mxCell>
        <mxCell id="JCA2NXcP29K0GtfBwjYJ-60" value="updatedAt" style="text;html=1;align=left;verticalAlign=middle;resizable=0;points=[];autosize=1;strokeColor=none;fillColor=none;" vertex="1" parent="JCA2NXcP29K0GtfBwjYJ-19">
          <mxGeometry x="5" y="90" width="80" height="30" as="geometry" />
        </mxCell>
        <mxCell id="JCA2NXcP29K0GtfBwjYJ-61" value="deletedAt" style="text;html=1;align=left;verticalAlign=middle;resizable=0;points=[];autosize=1;strokeColor=none;fillColor=none;" vertex="1" parent="JCA2NXcP29K0GtfBwjYJ-19">
          <mxGeometry x="5" y="110" width="70" height="30" as="geometry" />
        </mxCell>
        <mxCell id="JCA2NXcP29K0GtfBwjYJ-51" style="edgeStyle=none;rounded=0;orthogonalLoop=1;jettySize=auto;html=1;exitX=0;exitY=0.5;exitDx=0;exitDy=0;entryX=1;entryY=0.5;entryDx=0;entryDy=0;endArrow=none;endFill=0;elbow=vertical;" edge="1" parent="1" source="JCA2NXcP29K0GtfBwjYJ-49" target="JCA2NXcP29K0GtfBwjYJ-15">
          <mxGeometry relative="1" as="geometry" />
        </mxCell>
        <mxCell id="JCA2NXcP29K0GtfBwjYJ-53" value="0,n" style="edgeLabel;html=1;align=center;verticalAlign=middle;resizable=0;points=[];" vertex="1" connectable="0" parent="JCA2NXcP29K0GtfBwjYJ-51">
          <mxGeometry x="-0.2356" y="-1" relative="1" as="geometry">
            <mxPoint x="-6" y="1" as="offset" />
          </mxGeometry>
        </mxCell>
        <mxCell id="JCA2NXcP29K0GtfBwjYJ-49" value="Tagifier" style="swimlane;whiteSpace=wrap;html=1;fillColor=#dae8fc;strokeColor=#6c8ebf;" vertex="1" parent="1">
          <mxGeometry x="130" y="450" width="110" height="40" as="geometry" />
        </mxCell>
        <mxCell id="JCA2NXcP29K0GtfBwjYJ-54" value="Représenter" style="swimlane;whiteSpace=wrap;html=1;fillColor=#dae8fc;strokeColor=#6c8ebf;" vertex="1" parent="1">
          <mxGeometry x="205" y="240" width="110" height="40" as="geometry" />
        </mxCell>
        <mxCell id="JCA2NXcP29K0GtfBwjYJ-66" style="edgeStyle=none;rounded=0;orthogonalLoop=1;jettySize=auto;html=1;exitX=0.5;exitY=0;exitDx=0;exitDy=0;entryX=0.5;entryY=1;entryDx=0;entryDy=0;endArrow=none;endFill=0;elbow=vertical;" edge="1" parent="1" source="JCA2NXcP29K0GtfBwjYJ-65" target="JCA2NXcP29K0GtfBwjYJ-8">
          <mxGeometry relative="1" as="geometry" />
        </mxCell>
        <mxCell id="JCA2NXcP29K0GtfBwjYJ-69" value="0,n" style="edgeLabel;html=1;align=center;verticalAlign=middle;resizable=0;points=[];" vertex="1" connectable="0" parent="JCA2NXcP29K0GtfBwjYJ-66">
          <mxGeometry x="0.35" relative="1" as="geometry">
            <mxPoint as="offset" />
          </mxGeometry>
        </mxCell>
        <mxCell id="JCA2NXcP29K0GtfBwjYJ-65" value="Classer" style="swimlane;whiteSpace=wrap;html=1;fillColor=#dae8fc;strokeColor=#6c8ebf;" vertex="1" parent="1">
          <mxGeometry x="645" y="240" width="110" height="40" as="geometry" />
        </mxCell>
      </root>
    </mxGraphModel>
  </diagram>
</mxfile>
